<?xml version="1.0" encoding="UTF-8"?>
<svg xmlns="http://www.w3.org/2000/svg" viewBox="0 0 525 305" fill="none" role="img" aria-labelledby="logo-title logo-desc">
  <title id="logo-title">RB Games badge</title>
  <desc id="logo-desc">Blue angular R and red angular B inside a cream clipped-corner frame. Transparent background.</desc>
  <g transform="translate(-162 -158)">
  <g id="rb-badge" fill-rule="evenodd">
    <path fill="#f2f3e9" d="M254 158H637L687 206V405L622 463H162V244Z M264 174H628L670 215V396L614 447H180V252Z"/>
    <path fill="#278af4" d="M268 197H399L439 237V314L401 350H386L467 430H373L292 350H281V430H208V254Z M281 255H359Q368 255 368 264V293Q368 302 359 302H281Z"/>
    <path fill="#ff4138" d="M426 197H601L642 237V290L622 310L649 337V386L601 430H492L422 359L459 324V229Z M504 255H565Q575 255 575 265V280Q575 290 565 290H504Z M504 342H566Q578 342 578 354V366Q578 378 566 378H504Z"/>
  </g>
  </g>
</svg>
